HIERARCHY
ROOT SpineBase
{
  OFFSET 0.000000 0.000000 0.000000
  CHANNELS 6 Xposition Yposition Zposition Zrotation Xrotation Yrotation
  JOINT SpineMid
  {
    OFFSET 0.000000 31.275980 0.000000
    CHANNELS 3 Zrotation Xrotation Yrotation
    JOINT SpineShoulder
    {
      OFFSET -0.043022 23.276213 -0.641576
      CHANNELS 3 Zrotation Xrotation Yrotation
      JOINT Neck
      {
        OFFSET -0.117621 7.719660 -0.583500
        CHANNELS 3 Zrotation Xrotation Yrotation
        JOINT Head
        {
          OFFSET 5.672034 12.541184 1.610153
          CHANNELS 3 Zrotation Xrotation Yrotation
          End Site
          {
            OFFSET 0 0 0
          }
        }
      }
      JOINT ShoulderLeft
      {
        OFFSET -13.700908 -2.605553 -9.969445
        CHANNELS 3 Zrotation Xrotation Yrotation
        JOINT ElbowLeft
        {
          OFFSET -5.604165 -26.435275 -3.855054
          CHANNELS 3 Zrotation Xrotation Yrotation
          JOINT WristLeft
          {
            OFFSET 2.602566 -22.665652 -5.531868
            CHANNELS 3 Zrotation Xrotation Yrotation
            JOINT HandLeft
            {
              OFFSET 0.257703 -7.443155 -0.147013
              CHANNELS 3 Zrotation Xrotation Yrotation
              JOINT HandTipLeft
              {
                OFFSET 0.956296 -6.332811 -0.160730
                CHANNELS 3 Zrotation Xrotation Yrotation
                End Site
                {
                  OFFSET 0 0 0
                }
              }
              JOINT ThumbLeft
              {
                OFFSET 2.706092 -0.084557 -1.172117
                CHANNELS 3 Zrotation Xrotation Yrotation
                End Site
                {
                  OFFSET 0 0 0
                }
              }
            }
          }
        }
      }
      JOINT ShoulderRight
      {
        OFFSET 14.717710 -6.695260 4.299080
        CHANNELS 3 Zrotation Xrotation Yrotation
        JOINT ElbowRight
        {
          OFFSET 1.670968 -26.715433 2.637333
          CHANNELS 3 Zrotation Xrotation Yrotation
          JOINT WristRight
          {
            OFFSET 1.501034 -24.982513 -1.860437
            CHANNELS 3 Zrotation Xrotation Yrotation
            JOINT HandRight
            {
              OFFSET 0.059106 -6.506319 0.175082
              CHANNELS 3 Zrotation Xrotation Yrotation
              JOINT HandTipRight
              {
                OFFSET -0.553818 -6.783819 -0.250582
                CHANNELS 3 Zrotation Xrotation Yrotation
                End Site
                {
                  OFFSET 0 0 0
                }
              }
              JOINT ThumbRight
              {
                OFFSET -5.039120 1.959877 -3.689216
                CHANNELS 3 Zrotation Xrotation Yrotation
                End Site
                {
                  OFFSET 0 0 0
                }
              }
            }
          }
        }
      }
    }
  }
  JOINT HipLeft
  {
    OFFSET -6.577258 2.173540 -6.399888
    CHANNELS 3 Zrotation Xrotation Yrotation
    JOINT KneeLeft
    {
      OFFSET -10.807579 -32.058947 0.994341
      CHANNELS 3 Zrotation Xrotation Yrotation
      JOINT AnkleLeft
      {
        OFFSET -5.911445 -34.409117 5.160063
        CHANNELS 3 Zrotation Xrotation Yrotation
        JOINT FootLeft
        {
          OFFSET 3.386178 -6.620966 -0.125559
          CHANNELS 3 Zrotation Xrotation Yrotation
          End Site
          {
            OFFSET 0 0 0
          }
        }
      }
    }
  }
  JOINT HipRight
  {
    OFFSET 4.698634 0.080453 -0.753833
    CHANNELS 3 Zrotation Xrotation Yrotation
    JOINT KneeRight
    {
      OFFSET -1.774910 -31.695224 6.365679
      CHANNELS 3 Zrotation Xrotation Yrotation
      JOINT AnkleRight
      {
        OFFSET -8.719479 -34.413458 7.547645
        CHANNELS 3 Zrotation Xrotation Yrotation
        JOINT FootRight
        {
          OFFSET 3.964910 -3.819174 -11.736695
          CHANNELS 3 Zrotation Xrotation Yrotation
          End Site
          {
            OFFSET 0 0 0
          }
        }
      }
    }
  }
}
MOTION
Frames: 14
Frame Time: 0.033333
95.183208 75.272822 360.865685 -0.000000 0.000000 -26.598005 -0.000000 0.000000 26.598005 -0.000000 0.000000 0.000000 -0.000000 0.000000 0.000000 0.000000 0.000000 0.000000 -0.000000 0.000000 0.000000 -0.000000 0.000000 0.000000 -0.000000 0.000000 0.000000 -0.000000 0.000000 0.000000 0.000000 0.000000 0.000000 0.000000 0.000000 0.000000 -0.000000 0.000000 0.000000 -0.000000 0.000000 0.000000 -0.000000 0.000000 0.000000 -0.000000 0.000000 0.000000 0.000000 0.000000 0.000000 0.000000 0.000000 0.000000 -0.000000 0.000000 26.598005 -0.000000 0.000000 0.000000 -0.000000 0.000000 0.000000 0.000000 0.000000 0.000000 -0.000000 0.000000 26.598005 -0.000000 0.000000 0.000000 -0.000000 0.000000 0.000000 0.000000 0.000000 0.000000
95.374209 75.302455 360.978247 0.209407 -0.131429 -26.526515 -0.246060 0.024069 26.526807 -0.000000 0.000000 0.000000 -0.000000 0.000000 0.000000 0.000000 0.000000 0.000000 -0.000000 0.000000 0.000000 -0.753234 0.231758 0.212030 -0.883566 0.076501 -0.168306 2.217340 -2.046778 -0.304084 0.000000 0.000000 0.000000 0.000000 0.000000 0.000000 -0.000000 0.000000 0.000000 0.621890 -1.685569 -0.138552 -3.578197 2.849693 0.205075 2.947122 -1.172505 0.098784 0.000000 0.000000 0.000000 0.000000 0.000000 0.000000 -0.246060 0.024069 26.526807 -0.000000 0.000000 0.000000 1.624986 -1.102267 -0.574869 0.000000 0.000000 0.000000 -0.246060 0.024069 26.526807 -0.000000 0.000000 0.000000 -4.119050 -9.016083 4.106254 0.000000 0.000000 0.000000
95.541660 75.327450 361.076707 0.390377 -0.243661 -26.453096 -0.458046 0.044246 26.454103 -0.000000 0.000000 0.000000 -0.000000 0.000000 0.000000 0.000000 0.000000 0.000000 -0.000000 0.000000 0.000000 -1.441060 0.437595 0.407686 -1.528309 0.290151 -0.317045 3.903770 -3.785125 -0.514359 0.000000 0.000000 0.000000 0.000000 0.000000 0.000000 -0.000000 0.000000 0.000000 1.114013 -3.196319 -0.244340 -6.415115 5.371562 0.580499 5.213702 -0.983267 0.122908 0.000000 0.000000 0.000000 0.000000 0.000000 0.000000 -0.458046 0.044246 26.454103 -0.000000 0.000000 0.000000 3.018663 -2.034384 -1.030639 0.000000 0.000000 0.000000 -1.252096 0.150357 26.296963 0.664883 -0.446893 0.161082 -7.972384 -19.110313 7.712881 0.000000 0.000000 0.000000
95.685560 75.347808 361.161065 0.542785 -0.336614 -26.378212 -0.635825 0.060398 26.380141 -0.000000 0.000000 0.000000 -0.000000 0.000000 0.000000 0.000000 0.000000 0.000000 -0.000000 0.000000 0.000000 -2.057814 0.616497 0.584587 -1.960739 0.637870 -0.439650 5.118757 -5.288680 -0.654937 0.000000 0.000000 0.000000 0.000000 0.000000 0.000000 -0.000000 0.000000 0.000000 1.472313 -4.519050 -0.323914 -8.544862 7.568680 1.024164 6.952733 -1.519783 0.218099 0.000000 0.000000 0.000000 0.000000 0.000000 0.000000 -1.675118 0.371720 26.110347 0.796286 -0.736884 0.278834 4.173001 -2.780293 -1.375015 0.000000 0.000000 0.000000 -1.772138 0.211160 26.155844 0.953549 -0.636169 0.232284 -11.251089 -28.926990 10.349329 0.000000 0.000000 0.000000
95.805911 75.363530 361.231321 0.666526 -0.410224 -26.302277 -0.779290 0.072390 26.305156 -0.000000 0.000000 0.000000 -0.000000 0.000000 0.000000 0.000000 0.000000 0.000000 -0.574144 -0.542460 0.195937 -2.020382 1.316780 0.563930 -2.202541 1.118702 -0.532047 5.901268 -6.608585 -0.743646 0.000000 0.000000 0.000000 0.000000 0.000000 0.000000 -0.000000 0.000000 0.000000 1.693791 -5.643698 -0.383083 -9.993064 9.454778 1.455106 8.167793 -2.126370 0.315112 0.000000 0.000000 0.000000 0.000000 0.000000 0.000000 -2.059430 0.460442 25.973195 0.981023 -0.909382 0.345699 5.082647 -3.328350 -1.615500 0.000000 0.000000 0.000000 -2.221020 0.261804 26.021110 1.212597 -0.802588 0.296744 -13.852651 -37.145245 11.747888 0.000000 0.000000 0.000000
95.902711 75.374614 361.287474 0.761519 -0.464440 -26.225654 -0.070496 -0.028431 26.247043 -0.685569 0.459007 -0.015304 -0.000000 0.000000 0.000000 0.000000 0.000000 0.000000 -0.690857 -0.646017 0.233701 -2.363143 1.546013 0.667166 -2.270505 1.733768 -0.592384 6.273769 -7.779549 -0.795190 0.000000 0.000000 0.000000 0.000000 0.000000 0.000000 -0.000000 0.000000 0.000000 1.776501 -6.562959 -0.426620 -10.776935 11.046733 1.811312 8.892175 -2.826640 0.403997 0.000000 0.000000 0.000000 0.000000 0.000000 0.000000 -2.357434 0.530913 25.848419 1.125722 -1.046057 0.399053 5.744217 -3.670733 -1.758580 0.000000 0.000000 0.000000 -2.598490 0.301873 25.892836 1.441773 -0.946134 0.354131 -15.829429 -43.047734 11.868593 0.000000 0.000000 0.000000
96.123768 75.391846 361.443909 1.023430 -0.651652 -26.094355 -0.185490 -0.005114 26.122929 -0.854363 0.574989 -0.018203 -0.000000 0.000000 0.000000 0.000000 0.000000 0.000000 -0.787952 -0.738536 0.266261 -2.695046 1.753967 0.768030 -2.009368 2.644938 -0.625486 6.453195 -8.972507 -0.788054 0.000000 0.000000 0.000000 0.000000 0.000000 0.000000 -0.000000 0.000000 0.000000 1.353854 -7.082840 -0.444870 -9.382032 11.468316 1.733820 8.012556 -3.136521 0.369367 0.000000 0.000000 0.000000 0.000000 0.000000 0.000000 -3.147258 0.712975 25.608783 1.501419 -1.359966 0.525001 5.851246 -3.795731 -1.812581 0.000000 0.000000 0.000000 -3.424673 0.460685 25.670040 2.637212 -1.514136 0.720080 -17.303801 -44.037328 11.028383 0.000000 0.000000 0.000000
96.127109 75.395069 361.432335 0.982429 -0.603007 -26.003583 -0.070016 -0.037273 26.032941 -0.902903 0.606184 -0.018994 -0.000000 0.000000 0.000000 0.000000 0.000000 0.000000 -0.883843 -0.825365 0.297329 -2.833443 1.891911 0.810228 -1.927146 3.614816 -0.599065 5.398813 -9.601229 -0.820082 0.000000 0.000000 0.000000 0.000000 0.000000 0.000000 -0.000000 0.000000 0.000000 1.138037 -7.576399 -0.467299 -8.814068 13.185266 1.849756 6.594163 -2.146265 0.196687 0.000000 0.000000 0.000000 0.000000 0.000000 0.000000 -3.022871 0.689745 25.527837 1.443497 -1.329982 0.511894 6.407913 -3.842179 -1.821104 0.000000 0.000000 0.000000 -3.512721 0.446532 25.548303 2.836441 -1.729641 0.808822 -16.001989 -39.748610 9.961812 0.000000 0.000000 0.000000
95.995901 75.368133 361.335604 0.753709 -0.439150 -26.083757 0.175040 -0.080437 26.110325 -0.875324 0.588708 -0.018545 -0.000000 0.000000 0.000000 0.000000 0.000000 0.000000 -0.983256 -0.861722 0.318451 -2.917481 1.935965 0.840135 -1.859278 4.589486 -0.555159 5.229448 -10.909403 -0.892402 0.000000 0.000000 0.000000 0.000000 0.000000 0.000000 -0.000000 0.000000 0.000000 0.991713 -7.854773 -0.480655 -8.233085 13.879085 1.845749 6.018437 -6.131733 0.436371 0.000000 0.000000 0.000000 0.000000 0.000000 0.000000 -2.414461 0.571368 25.677976 1.171859 -1.127183 0.429226 6.300404 -3.449089 -1.648644 0.000000 0.000000 0.000000 -3.156753 0.369014 25.637947 2.736609 -1.817224 0.818615 -17.325301 -41.146311 2.773404 0.000000 0.000000 0.000000
95.764005 75.374341 361.143782 0.418418 -0.160371 -26.129188 0.464533 -0.147988 26.151423 -0.770137 0.498083 -0.016962 -0.000000 0.000000 0.000000 0.000000 0.000000 0.000000 -1.044965 -0.927838 0.340375 -2.989421 2.047902 0.863775 -1.471083 5.209390 -0.552046 3.793658 -11.122118 -0.977872 0.000000 0.000000 0.000000 0.000000 0.000000 0.000000 -0.000000 0.000000 0.000000 0.679178 -7.889514 -0.480817 -7.424241 14.375446 1.758009 6.539335 -9.642740 0.744182 0.000000 0.000000 0.000000 0.000000 0.000000 0.000000 -1.448990 0.336183 25.847160 0.738330 -0.775916 0.290046 5.799036 -2.827388 -1.378024 0.000000 0.000000 0.000000 -2.388203 0.131881 25.739283 2.392968 -1.617502 0.737727 -17.550694 -41.142048 0.180727 0.000000 0.000000 0.000000
95.435267 75.390293 360.880986 -0.010300 0.199034 -26.149229 0.096962 -0.174124 26.149395 -0.000000 0.000000 0.000000 -0.000000 0.000000 0.000000 0.000000 0.000000 0.000000 -1.122925 -0.960363 0.357640 -2.982471 2.103536 0.869797 -0.544642 5.620038 -0.586369 3.476949 -11.131256 -0.875459 0.000000 0.000000 0.000000 0.000000 0.000000 0.000000 -0.000000 0.000000 0.000000 0.380319 -7.854885 -0.477242 -6.658082 15.556569 1.708794 7.491536 -11.434514 0.994982 0.000000 0.000000 0.000000 0.000000 0.000000 0.000000 0.096962 -0.174124 26.149395 -0.000000 0.000000 0.000000 5.008799 -2.161733 -1.082341 0.000000 0.000000 0.000000 -1.263919 -0.198850 25.864961 1.895132 -1.197463 0.599882 -17.598692 -41.228394 -0.412842 0.000000 0.000000 0.000000
94.980093 75.427221 360.495676 -0.568802 0.696012 -26.164394 0.817437 -0.373842 26.170516 -0.000000 0.000000 0.000000 -0.321688 -0.676284 0.345093 0.000000 0.000000 0.000000 -1.195405 -0.988560 0.373237 -2.938741 2.221063 0.875787 0.180235 5.779323 -0.629398 1.547244 -10.607034 -0.941639 0.000000 0.000000 0.000000 0.000000 0.000000 0.000000 -0.000000 0.000000 0.000000 0.112323 -7.803685 -0.472672 -6.257757 17.087515 1.738189 8.537024 -14.125117 1.397829 0.000000 0.000000 0.000000 0.000000 0.000000 0.000000 0.817437 -0.373842 26.170516 -0.000000 0.000000 0.000000 4.628580 -1.668529 -0.856308 0.000000 0.000000 0.000000 0.817437 -0.373842 26.170516 0.607413 -0.642265 0.299393 -17.630782 -41.244717 -1.044614 0.000000 0.000000 0.000000
94.647681 75.435640 360.201696 -0.910172 1.032102 -25.823834 1.268912 -0.532415 25.837928 -0.000000 0.000000 0.000000 -0.441218 -0.693006 0.367055 0.000000 0.000000 0.000000 -1.261904 -0.958700 0.376297 -2.844678 2.296737 0.878388 0.791561 6.088656 -0.648221 0.983240 -10.768173 -0.933464 0.000000 0.000000 0.000000 0.000000 0.000000 0.000000 -0.000000 0.000000 0.000000 -0.222211 -7.358633 -0.442651 -5.212309 17.496499 1.536479 5.495055 -13.196479 0.808239 0.000000 0.000000 0.000000 0.000000 0.000000 0.000000 2.688251 -0.689361 26.147753 -1.205025 0.766111 -0.286634 4.599680 -1.395323 -0.730046 0.000000 0.000000 0.000000 1.268912 -0.532415 25.837928 0.529429 -0.579461 0.265631 -17.471159 -41.176230 -1.019016 0.000000 0.000000 0.000000
94.650104 75.479958 360.262563 -0.771057 0.889947 -25.674235 1.080533 -0.467931 25.684636 -0.000000 0.000000 0.000000 -0.567311 -0.682607 0.377628 0.000000 0.000000 0.000000 -1.282825 -0.961036 0.379625 -2.801175 2.384139 0.881403 1.395901 5.978530 -0.692934 -0.155240 -10.601187 -1.003541 0.000000 0.000000 0.000000 0.000000 0.000000 0.000000 -0.000000 0.000000 0.000000 -0.607779 -6.587078 -0.387708 -4.997920 18.085468 1.479395 5.457270 -14.333620 0.827750 0.000000 0.000000 0.000000 0.000000 0.000000 0.000000 2.479499 -0.536973 25.961415 -1.227653 0.674285 -0.257286 4.702366 -1.420912 -0.742197 0.000000 0.000000 0.000000 1.080533 -0.467931 25.684636 -0.000000 0.000000 0.000000 -17.106634 -42.187662 -1.248214 0.000000 0.000000 0.000000
